<svg width="48" height="44" viewBox="0 0 28 24" fill="none" xmlns="http://www.w3.org/2000/svg">
<path d="M1.37568 4.51875C2.29443 2.44125 4.37568 0.75 6.87505 0.75H21.5001C24.1944 0.75 27.1251 2.97375 27.1251 6.375C27.1251 8.355 26.0169 10.0331 25.2426 10.8881C25.2294 11.9156 25.2707 13.2769 25.3213 14.7338L25.3363 15.1744C25.3869 16.6594 25.4394 18.2025 25.4394 19.5C25.4394 20.7 25.3157 21.8231 24.5132 22.5281C24.1138 22.8787 23.6319 23.0494 23.1444 23.1394C22.6644 23.2275 22.1076 23.25 21.5001 23.25H6.50005C4.73005 23.25 3.58818 22.7194 3.0013 21.7406C2.5363 20.9662 2.5513 20.0625 2.56068 19.6275V10.9125C0.635053 9.0375 0.486928 6.53438 1.37568 4.51875ZM6.87505 2.625C5.24943 2.625 3.76818 3.74813 3.0913 5.27625C2.43505 6.76312 2.5963 8.50125 4.10755 9.78562C4.21104 9.87367 4.29415 9.98316 4.35113 10.1065C4.40811 10.2299 4.4376 10.3641 4.43755 10.5V19.6256C4.43755 20.1338 4.43568 20.4881 4.60818 20.775C4.72443 20.9681 5.08068 21.375 6.50005 21.375H17.7501C18.3351 21.375 18.7344 21.3506 19.0157 21.2962C19.2894 21.2437 19.3682 21.1781 19.3926 21.1537C19.4169 21.1313 19.4844 21.0544 19.5388 20.7825C19.5969 20.5012 19.6251 20.0981 19.6251 19.5C19.6251 18.5869 19.6175 17.5763 19.6101 16.5563C19.5969 14.4675 19.5819 12.3281 19.6251 10.8488C19.6314 10.6091 19.7294 10.3809 19.8988 10.2113C20.0488 10.0612 20.1932 9.92625 20.3301 9.795C20.6957 9.45 21.0144 9.14812 21.3051 8.7225C21.6613 8.1975 21.9538 7.49062 21.9538 6.375C21.9616 5.83786 21.8417 5.30656 21.6041 4.82479C21.3664 4.34301 21.0178 3.92453 20.5869 3.60375C19.7708 2.9815 18.7762 2.63834 17.7501 2.625H6.87505ZM21.3763 21.1594C21.3615 21.2317 21.3447 21.3036 21.3257 21.375H21.5001C22.0832 21.375 22.4994 21.3506 22.8032 21.2944C23.1032 21.2381 23.2232 21.165 23.2757 21.1181C23.3788 21.0281 23.5644 20.7431 23.5644 19.5C23.5644 18.2362 23.5119 16.7269 23.4613 15.2344L23.4463 14.7975C23.3901 13.1812 23.3432 11.6025 23.3751 10.4738C23.382 10.2255 23.4872 9.99015 23.6676 9.81938C24.2338 9.28125 25.2501 7.88625 25.2501 6.375C25.2501 4.53188 23.9132 3.16688 22.4263 2.75437C23.2644 3.66 23.8288 4.87313 23.8288 6.375C23.8288 7.8675 23.4238 8.94375 22.8538 9.78C22.4376 10.3894 21.9126 10.8863 21.5188 11.2556L21.4907 11.2838C21.4607 12.7013 21.4719 14.5988 21.4851 16.4906C21.4925 17.5219 21.5001 18.5531 21.5001 19.5C21.5001 20.1244 21.4738 20.6831 21.3763 21.1594Z" fill="white"/>
</svg>
