<svg width="42" height="44" viewBox="0 0 22 24" fill="none" xmlns="http://www.w3.org/2000/svg">
<path d="M17.6787 7.03516C17.65 8.91391 17.025 11.4577 14.095 12.4439C15.0125 10.2614 15.1525 8.17266 14.5025 6.22016C13.6337 3.59891 10.735 1.55141 8.80625 0.436406C8.1475 0.0539056 7.3025 0.528905 7.315 1.29016C7.34 2.68016 6.9175 4.71141 4.86625 6.76266C2.13375 9.49266 0.75 12.3139 0.75 15.1464C0.75 18.7027 3.25 23.2502 8.25 23.2502C3.19875 18.1989 7 13.8964 7 13.8964C8.0575 21.2889 13.235 23.2502 15.75 23.2502C17.8888 23.2502 22 21.6877 22 15.1902C22 11.2739 20.335 8.30141 19.0187 6.56641C18.585 5.99391 17.6887 6.31891 17.6787 7.03516Z" fill="white"/>
</svg>
