<svg width="50" height="50" viewBox="0 0 30 30" fill="none" xmlns="http://www.w3.org/2000/svg">
<path d="M20.5676 2.99943C21.8123 2.99943 22.9971 3.32936 24.0019 3.98924C25.7116 5.09902 26.7614 6.7937 27.0013 8.75832C27.0871 9.70996 26.9638 10.6688 26.6399 11.5678C26.3161 12.4667 25.7996 13.284 25.1267 13.9623C24.0769 14.9971 22.7421 15.657 21.2724 15.807C18.408 16.1069 15.8885 17.2467 14.0138 19.1513C13.7872 19.3725 13.4831 19.4962 13.1665 19.4962C12.8498 19.4962 12.5458 19.3725 12.3191 19.1513L10.8344 17.6666C10.7295 17.5626 10.6463 17.4388 10.5896 17.3023C10.533 17.1659 10.504 17.0195 10.5045 16.8718C10.5045 16.4968 10.6695 16.1669 10.9844 15.852C12.799 14.0223 13.9088 11.5928 14.1788 8.80332C14.3737 6.8087 15.4385 5.09902 17.1782 3.97424C18.168 3.32936 19.3378 2.99943 20.5676 2.99943ZM20.5676 0C18.8129 0 17.0582 0.479908 15.5435 1.45472C12.904 3.1494 11.4493 5.78889 11.1944 8.51837C10.9994 10.498 10.2495 12.3426 8.8698 13.7224L8.82481 13.7674C7.08514 15.507 7.08514 18.1615 8.71982 19.7812L10.2045 21.2659C11.0294 22.0908 12.0942 22.4957 13.159 22.4957C14.2238 22.4957 15.3036 22.0908 16.1284 21.2659C17.5831 19.8112 19.5028 19.0164 21.5874 18.7914C23.642 18.5664 25.6516 17.6666 27.2413 16.0919C28.2386 15.0959 28.9993 13.8885 29.4671 12.5589C29.9349 11.2292 30.0977 9.81146 29.9437 8.41041C29.7896 7.00935 29.3225 5.66085 28.577 4.46465C27.8315 3.26845 26.8265 2.25516 25.6366 1.49971C24.1219 0.494905 22.3522 0 20.5676 0ZM6.39527 26.7849C6.80019 27.6247 6.66522 28.6445 5.96035 29.3344C5.65508 29.6443 5.26599 29.8583 4.84083 29.9503C4.41567 30.0422 3.97291 30.0081 3.56687 29.852C3.16083 29.696 2.80916 29.4248 2.55501 29.0718C2.30085 28.7188 2.15526 28.2992 2.13609 27.8647C1.70151 27.8455 1.28199 27.6999 0.928967 27.4457C0.575946 27.1916 0.304781 26.8399 0.148734 26.4339C-0.00731286 26.0278 -0.0414557 25.5851 0.0504934 25.1599C0.142442 24.7348 0.356485 24.3457 0.666366 24.0404C1.35623 23.3505 2.39104 23.2006 3.21588 23.6055L6.93517 19.9612C7.14513 20.2461 7.38508 20.5761 7.65503 20.846L9.13974 22.3307C9.45468 22.6307 9.75463 22.8856 10.1446 23.1106L6.39527 26.7849Z" fill="white"/>
</svg>
